<svg width="200" height="231" viewBox="0 0 200 231" fill="none" xmlns="http://www.w3.org/2000/svg">
<g clip-path="url(#clip0_1_3954)">
<rect x="77.4175" y="195.034" width="7.46187" height="26.7372" fill="#202020"/>
<rect x="107.105" y="195.034" width="7.46186" height="26.7372" fill="#202020"/>
<path d="M110.37 230.528H127.19V224.83C127.19 222.539 125.334 220.684 123.043 220.684H107.1V227.258C107.1 229.065 108.563 230.528 110.37 230.528Z" fill="#202020"/>
<path d="M153.583 150.022C144.861 150.022 138.265 148.272 137.645 148.101L139.617 140.905C139.922 140.988 170.262 148.951 184.694 128.245L190.817 132.512C180.802 146.868 165.283 150.022 153.583 150.022Z" fill="#202020"/>
<path d="M40.2002 189.514L44.1813 185.232C46.7452 182.476 46.5883 178.163 43.8324 175.599L41.7364 173.651C38.9804 171.085 34.6667 171.242 32.1027 174L28.1216 178.279C25.5577 181.038 25.7119 185.351 28.4705 187.915L30.5638 189.862C33.3225 192.426 37.6363 192.27 40.2002 189.514Z" fill="#202020"/>
<path d="M35.3428 178.52C25.1494 178.52 16.8518 174.203 14.3447 166.668C12.584 161.381 13.9714 154.976 18.15 149.102C22.2447 143.347 28.4029 138.876 35.4835 136.521C50.153 131.644 66.2586 137.08 69.9476 148.166C71.7299 153.524 70.2586 159.477 65.8015 164.926C61.742 169.892 55.5756 173.933 48.4329 176.31C43.9298 177.808 39.4781 178.52 35.3428 178.52ZM46.5776 142.17C43.7783 142.17 40.8142 142.611 37.8391 143.598C32.33 145.432 27.3671 149.016 24.2298 153.429C21.4874 157.283 20.438 161.351 21.4225 164.313C23.5537 170.714 34.8425 172.967 46.0772 169.232C51.8947 167.296 56.8495 164.088 60.0273 160.204C61.6338 158.235 64.1463 154.36 62.8671 150.522C61.3012 145.813 54.6236 142.17 46.5776 142.17Z" fill="#202020"/>
<path d="M91.5516 199.442C61.9882 199.442 37.9338 175.388 37.9338 145.824C37.9338 116.261 61.9882 92.2091 91.5516 92.2091C121.115 92.2091 145.169 116.261 145.169 145.824C145.169 175.388 121.115 199.442 91.5516 199.442Z" fill="#009245"/>
<path d="M91.5516 94.3971C119.955 94.3971 142.979 117.421 142.979 145.824C142.979 174.227 119.955 197.251 91.5516 197.251C63.1484 197.251 40.1245 174.227 40.1245 145.824C40.1245 117.421 63.1484 94.3971 91.5516 94.3971ZM91.5516 90.0184C60.7792 90.0184 35.7458 115.052 35.7458 145.824C35.7458 176.594 60.7792 201.63 91.5516 201.63C122.324 201.63 147.357 176.594 147.357 145.824C147.357 115.052 122.324 90.0184 91.5516 90.0184Z" fill="#202020"/>
<g opacity="0.440002">
<path d="M129.51 111.127C129.51 116.723 112.758 121.259 92.0953 121.259C71.4297 121.259 54.6777 116.723 54.6777 111.127C54.6777 105.532 71.4297 100.996 92.0953 100.996C112.758 100.996 129.51 105.532 129.51 111.127Z" fill="#202020"/>
</g>
<path d="M107.741 93.8859C107.219 93.9454 106.708 94.0157 106.181 94.0698C104.517 94.2402 102.813 94.3565 101.109 94.4728C100.298 94.5269 99.5057 94.6107 98.6889 94.6513C96.5253 94.7649 94.3265 94.8136 92.106 94.8271C91.7301 94.8325 91.3704 94.8596 90.9918 94.8596H90.1885C89.726 94.8596 89.2825 94.8271 88.82 94.8217C86.6969 94.8028 84.5874 94.7595 82.5184 94.654C81.68 94.6107 80.8713 94.5269 80.041 94.4701C78.3561 94.3538 76.6711 94.2375 75.0241 94.0698C74.5021 94.0157 73.9936 93.9454 73.4771 93.8886L90.6077 106.695L107.741 93.8859Z" fill="#DF2536"/>
<path d="M14.6989 72.5902C14.661 72.5605 14.6177 72.5307 14.5799 72.501C12.7381 71.0135 11.2289 69.5747 10.1146 68.2386L6.89893 75.4111L16.684 74.094C15.9889 73.5882 15.3182 73.0852 14.6989 72.5902Z" fill="#DF2536"/>
<path d="M12.6839 62.9972C12.6947 63.0297 12.7001 63.0513 12.7137 63.0865C12.7705 63.2352 12.8705 63.4381 12.9949 63.6625C13.0247 63.7139 13.0571 63.7653 13.0896 63.8275C13.2384 64.0736 13.4385 64.3657 13.69 64.6957C13.7387 64.7579 13.7982 64.8309 13.8523 64.8985C14.1471 65.2663 14.4933 65.672 14.9449 66.1372C15.1072 66.3076 15.3182 66.4834 15.4912 66.6538C15.9618 67.1081 16.427 67.5679 16.976 68.0412C17.0274 68.0845 17.0923 68.1305 17.1437 68.1737C28.5002 77.8019 56.5275 89.8453 90.1694 89.8453C90.4588 89.8453 90.7455 89.848 91.0376 89.8453C124.076 89.8453 151.649 78.2455 163.395 68.7146C163.677 68.4848 164.001 68.2495 164.263 68.0223C164.507 67.8113 164.693 67.6139 164.921 67.4083C165.402 66.9702 165.897 66.5267 166.305 66.1047C166.716 65.6774 167.036 65.3042 167.314 64.958C167.398 64.8525 167.487 64.7471 167.56 64.647C167.782 64.3603 167.961 64.098 168.098 63.8735C168.161 63.7707 168.212 63.6788 168.261 63.5868C168.336 63.4435 168.401 63.3163 168.447 63.2109C168.504 63.0811 168.545 62.9702 168.569 62.8836L168.593 62.8025C168.604 62.7592 168.612 62.7186 168.618 62.6916L168.561 62.5645C166.968 60.6361 153.516 62.3211 142.668 63.6815C140.842 63.9114 138.924 64.1494 136.964 64.3847C139.49 69.4341 137.799 76.1576 137.056 74.9865C136.728 74.4726 129.015 62.2264 122.254 41.6096C114.183 16.9846 103.833 5.01425 90.6103 5.01425C77.3877 5.01425 67.0374 16.9846 58.9643 41.6096C52.2056 62.2264 44.4868 74.4726 44.1622 74.9892C43.6835 75.7384 41.7281 69.4341 44.2569 64.3847C42.3177 64.1494 40.4191 63.9114 38.6098 63.6869C27.6915 62.3157 14.1498 60.6253 12.6434 62.5996L12.6028 62.6943C12.6028 62.7105 12.6109 62.7403 12.6163 62.7646C12.6271 62.8214 12.6488 62.8998 12.6839 62.9972Z" fill="#FFD444"/>
<path d="M167.138 64.7498C155.392 74.2833 127.82 85.8831 94.7807 85.8831C94.4886 85.8831 94.2019 85.8804 93.9125 85.8831C60.2706 85.8831 32.2433 73.8398 20.8895 64.2116C20.8354 64.1656 20.7705 64.1196 20.7192 64.0763C20.1701 63.6057 19.7049 63.1459 19.2371 62.6889C19.0613 62.5185 18.8503 62.3427 18.688 62.175C18.5203 61.9992 18.423 61.8694 18.2796 61.7098C15.3019 61.6557 13.1843 61.8883 12.6434 62.5996L12.6028 62.6916C12.6028 62.7078 12.6109 62.7403 12.6163 62.7619C12.6271 62.8187 12.6488 62.8998 12.6839 62.9999L12.7137 63.0865C12.7705 63.2352 12.8705 63.4353 12.9949 63.6598C13.0247 63.7139 13.0571 63.768 13.0896 63.8248C13.2384 64.0736 13.4385 64.363 13.69 64.693C13.7387 64.7579 13.7982 64.8282 13.8523 64.8958C14.1471 65.2663 14.4933 65.672 14.9449 66.1372C15.1072 66.3049 15.3182 66.4807 15.4912 66.651C15.9618 67.1108 16.427 67.5679 16.976 68.0385C17.0274 68.0845 17.0923 68.1305 17.1437 68.1737C28.5002 77.8019 56.5275 89.8453 90.1694 89.8453C90.4588 89.8426 90.7455 89.848 91.0376 89.8453C124.074 89.8453 151.649 78.2455 163.395 68.7119C163.677 68.482 164.001 68.2467 164.263 68.0196C164.507 67.8113 164.693 67.6112 164.921 67.4056C165.402 66.9675 165.897 66.5294 166.305 66.1047C166.716 65.6747 167.036 65.3015 167.314 64.9553C167.398 64.8525 167.487 64.7443 167.56 64.6497C167.709 64.4523 167.812 64.2927 167.923 64.125C167.674 64.3305 167.393 64.5415 167.138 64.7498Z" fill="#E0B027"/>
<path d="M86.2994 35.3945C96.2792 32.5899 106.099 29.3552 115.63 25.3065C112.91 19.9596 109.983 15.654 106.827 12.4355C93.3123 19.297 79.0539 24.1571 64.4087 27.7001C62.4912 31.7866 60.6737 36.3979 58.9645 41.6096C58.9158 41.761 58.8644 41.9017 58.813 42.0531C68.0463 40.1329 77.2175 37.9449 86.2994 35.3945Z" fill="#DF2536"/>
<path d="M70.2397 54.7483C77.1499 53.1878 84.0275 51.4731 90.8565 49.588C97.7045 47.6975 104.428 45.4068 111.257 43.4649C114.781 42.4642 118.256 41.2958 121.678 39.9895C120.258 35.8191 118.776 31.9732 117.215 28.5601C117.08 28.6196 116.95 28.6845 116.818 28.7413C97.9262 36.8279 77.6745 42.0017 57.4634 46.0018C55.8217 50.6374 54.1638 54.7699 52.5979 58.3724C58.4965 57.2608 64.3816 56.0708 70.2397 54.7483Z" fill="#009245"/>
<path d="M38.6992 98.8055C50.7913 103.014 65.7204 106.351 82.7997 107.111L63.6244 92.7798L38.6992 98.8055Z" fill="#009245"/>
<path d="M166.278 72.7714C165.727 73.2096 165.142 73.6504 164.531 74.094L174.36 75.4165L171.103 68.2386C169.994 69.5666 168.502 70.9946 166.673 72.4712C166.552 72.5713 166.403 72.6714 166.278 72.7714Z" fill="#DF2536"/>
<path d="M117.591 92.7798L98.4185 107.111C115.498 106.349 130.427 103.014 142.519 98.8082L117.591 92.7798Z" fill="#009245"/>
<path d="M149.889 82.4402C148.802 82.9406 147.695 83.4328 146.546 83.9196C145.954 84.1684 145.351 84.4119 144.745 84.658C143.579 85.1259 142.392 85.5856 141.169 86.0373C140.52 86.278 139.863 86.5133 139.195 86.7486C137.956 87.184 136.691 87.6032 135.398 88.0143C134.692 88.2388 133.989 88.4606 133.267 88.6769C131.955 89.0718 130.614 89.445 129.253 89.8102C128.842 89.921 128.458 90.0454 128.044 90.1509L149.245 95.2788L154.143 80.374C153.283 80.8175 152.412 81.2556 151.501 81.6938C150.976 81.9453 150.43 82.1914 149.889 82.4402Z" fill="#DF2536"/>
<path d="M6.49609 80.52C8.83013 83.7195 15.6943 88.8149 26.1934 93.7426L21.1954 78.5457L6.49609 80.52Z" fill="#009245"/>
<path d="M160.023 78.543L155.025 93.7453C165.529 88.8176 172.399 83.7249 174.757 80.5254L160.023 78.543Z" fill="#009245"/>
<path d="M53.1766 90.1509C52.8521 90.0671 52.5519 89.9697 52.23 89.8832C50.7128 89.4802 49.2226 89.0637 47.7675 88.6229C47.2077 88.4552 46.6586 88.2821 46.1096 88.1063C44.6302 87.6411 43.186 87.1597 41.7769 86.6621C41.2928 86.4917 40.8114 86.3186 40.3354 86.1428C38.9047 85.6208 37.5199 85.0853 36.1704 84.5363C35.7566 84.3659 35.3455 84.2009 34.9398 84.0305C33.5713 83.4545 32.2542 82.873 30.9749 82.278C30.6314 82.1184 30.2853 81.9615 29.9499 81.802C28.96 81.3314 28.0053 80.8554 27.075 80.3767L31.9729 95.2788L53.1766 90.1509Z" fill="#DF2536"/>
<path d="M10.1147 68.2386C11.229 69.5747 12.7381 71.0135 14.5826 72.501C14.6205 72.5308 14.6638 72.5605 14.7016 72.5903C15.3183 73.0852 15.9917 73.5882 16.6868 74.094L6.89899 75.4111L10.1147 68.2386ZM75.024 94.0698C76.6711 94.2402 78.356 94.3538 80.0437 94.4701C80.8713 94.5269 81.6799 94.6107 82.5184 94.654C84.59 94.7622 86.6996 94.8028 88.8227 94.8244C89.2825 94.8271 89.7287 94.8596 90.1912 94.8596H90.9944C91.3704 94.8596 91.7328 94.8325 92.1087 94.8298C94.3264 94.8136 96.528 94.7649 98.6889 94.654C99.5084 94.6107 100.298 94.5296 101.109 94.4728C102.813 94.3565 104.517 94.2402 106.183 94.0698C106.708 94.0158 107.219 93.9481 107.744 93.8886L90.6104 106.695L73.477 93.8886C73.9963 93.9481 74.5021 94.0185 75.024 94.0698ZM29.9499 81.802C30.2853 81.9642 30.6315 82.1211 30.9749 82.278C32.2542 82.873 33.5713 83.4572 34.9398 84.0305C35.3455 84.2009 35.7566 84.3686 36.1704 84.5363C37.52 85.0853 38.9047 85.6208 40.3327 86.1428C40.8114 86.3186 41.2901 86.4917 41.7769 86.6621C43.186 87.1624 44.6302 87.6411 46.1096 88.109C46.6587 88.2821 47.2077 88.4552 47.7675 88.6229C49.2226 89.0637 50.7128 89.4802 52.23 89.8832C52.5519 89.9697 52.8521 90.0671 53.1766 90.1509L31.9729 95.2788L27.075 80.3767C28.0053 80.8581 28.9573 81.3314 29.9499 81.802ZM63.6243 92.7798L82.7996 107.114C65.7204 106.351 50.7912 103.017 38.6992 98.8055L63.6243 92.7798ZM117.591 92.7798L142.519 98.8082C130.427 103.014 115.498 106.351 98.4184 107.111L117.591 92.7798ZM128.044 90.1536C128.458 90.0455 128.845 89.9211 129.253 89.8129C130.616 89.445 131.958 89.0718 133.269 88.677C133.991 88.4606 134.695 88.2388 135.401 88.0143C136.693 87.6032 137.959 87.184 139.198 86.7486C139.863 86.5133 140.52 86.278 141.172 86.0373C142.395 85.5857 143.582 85.1286 144.747 84.658C145.353 84.4119 145.956 84.1685 146.546 83.9196C147.698 83.4328 148.804 82.9406 149.892 82.4403C150.432 82.1914 150.976 81.9453 151.503 81.6938C152.412 81.2584 153.286 80.8175 154.146 80.374L149.248 95.2788L128.044 90.1536ZM166.281 72.7715C166.406 72.6714 166.554 72.5713 166.676 72.4713C168.502 70.9946 169.997 69.5666 171.103 68.2386L174.36 75.4165L164.534 74.094C165.145 73.6505 165.727 73.2096 166.281 72.7715ZM38.6099 63.6842C40.4192 63.9113 42.3178 64.1466 44.257 64.3846C41.7283 69.4341 43.6836 75.7384 44.1623 74.9892C44.4869 74.4753 52.2057 62.2264 58.9644 41.6096C67.0348 16.9846 77.3851 5.01425 90.6104 5.01425C103.833 5.01425 114.183 16.9846 122.254 41.6096C129.015 62.2264 136.728 74.4753 137.056 74.9865C137.799 76.1576 139.49 69.4341 136.964 64.3873C138.922 64.1466 140.842 63.9086 142.668 63.6815C153.516 62.3211 166.965 60.6361 168.561 62.5672L168.618 62.6889L168.594 62.8025L168.569 62.8836C168.545 62.9702 168.502 63.081 168.447 63.2082C168.402 63.3163 168.337 63.4462 168.261 63.5868C168.212 63.6761 168.158 63.7707 168.096 63.8735C167.961 64.098 167.782 64.3576 167.56 64.6497C167.487 64.7471 167.398 64.8525 167.314 64.958C167.036 65.3042 166.717 65.6747 166.303 66.1047C165.897 66.5294 165.402 66.9702 164.921 67.4056C164.694 67.6139 164.507 67.8113 164.264 68.0223C163.998 68.2495 163.677 68.482 163.395 68.7119C151.647 78.2455 124.074 89.8453 91.035 89.8453C90.7456 89.848 90.4589 89.8453 90.1695 89.8453C56.5276 89.8453 28.5003 77.8019 17.1438 68.1737C17.0925 68.1305 17.0275 68.0845 16.9762 68.0412C16.4271 67.5679 15.9592 67.1108 15.4914 66.6511C15.3183 66.4807 15.1073 66.3049 14.945 66.1372C14.4934 65.672 14.1472 65.2663 13.8524 64.8985C13.7983 64.8309 13.7388 64.7579 13.6901 64.693C13.4359 64.363 13.2385 64.0736 13.0897 63.8248C13.0546 63.768 13.0248 63.7139 12.9951 63.6598C12.8706 63.4353 12.7706 63.2352 12.7111 63.0865L12.684 62.9999C12.6489 62.8998 12.6272 62.8187 12.6164 62.7619L12.6002 62.6916L12.6435 62.5996C14.1472 60.6253 27.6916 62.3157 38.6099 63.6842ZM6.49601 80.5227L21.1953 78.5457L26.1933 93.7453C15.6915 88.8149 8.83004 83.7195 6.49601 80.5227ZM55.2159 108.604C65.8015 110.884 77.5014 112.328 90.0478 112.328H91.154C103.717 112.328 115.433 110.881 126.027 108.599L131.752 107.282C157.716 100.682 175.696 89.107 179.79 81.7966C180.431 80.6525 180.659 79.6897 180.726 78.8621C180.729 78.8405 180.742 78.8243 180.745 78.8026C180.748 78.7837 180.74 78.7675 180.742 78.7485C180.802 77.6938 180.561 76.8932 180.272 76.447L173.391 61.0905C173.364 61.0175 173.329 60.9688 173.302 60.9012C173.226 60.7254 173.159 60.5252 173.075 60.39C173.064 60.3711 173.045 60.3603 173.034 60.3386C173.015 60.3035 172.999 60.2548 172.978 60.2196C172.894 60.0844 172.772 59.9952 172.669 59.8816C169.6 55.3082 159.666 56.4982 142.046 58.7078C139.709 58.9999 137.229 59.3082 134.676 59.6165C132.296 54.4481 129.575 47.8571 127.016 40.0463C118.183 13.1009 106.275 0 90.6104 0C74.9429 0 63.0374 13.1009 54.2044 40.0463C51.6459 47.8544 48.9224 54.4481 46.5451 59.6138C44.0136 59.3082 41.5552 59.0026 39.2319 58.7132C20.8707 56.4116 10.7503 55.1432 8.21611 60.2169C8.04302 60.5063 7.88345 60.8444 7.76445 61.2338L1.09772 76.1549C0.83808 76.5768 0.646056 77.1501 0.543283 77.8046L0.537874 77.8317C0.497306 78.094 0.475669 78.3618 0.483783 78.662C0.486488 78.7107 0.467556 78.7539 0.475669 78.8026C0.481078 78.8513 0.510829 78.8865 0.518942 78.9324C0.586556 79.7627 0.811034 80.6931 1.42767 81.7966C5.53048 89.1124 23.5266 100.699 49.5093 107.295L55.2159 108.604ZM155.025 93.748L160.023 78.5457L174.757 80.5254C172.399 83.7249 165.529 88.8203 155.025 93.748Z" fill="#202020"/>
<path d="M73.4797 165.256C76.2492 173.881 87.4163 178.008 98.4238 174.474C109.431 170.941 116.112 161.083 113.342 152.458L73.4797 165.256Z" fill="#202020"/>
<path d="M107.855 165.351C105.699 168.245 102.362 170.668 98.286 171.966C94.6538 173.119 91.0189 173.238 87.8599 172.499C87.6544 171.907 87.5354 171.288 87.5354 170.638C87.5354 166.119 92.674 162.457 99.0541 162.457C102.567 162.457 105.729 163.58 107.855 165.351Z" fill="#DF2536"/>
<path d="M37.5795 176.662C35.4186 172.883 33.7445 169.159 32.4652 165.278C31.167 161.305 30.2989 157.305 29.8093 153.045L29.6335 151.531L34.7397 149.865L129.045 118.862L136.864 116.272H136.907L139.682 115.32L144.783 113.654L145.537 114.973C147.709 118.776 149.38 122.514 150.652 126.4C151.944 130.316 152.813 134.305 153.305 138.59L153.481 140.101L148.377 141.77L38.3341 177.984L37.5795 176.662Z" fill="#DF2536"/>
<path d="M143.917 115.898C146.005 119.555 147.647 123.211 148.88 126.979C150.11 130.708 150.968 134.59 151.452 138.806L147.798 139.999L95.3081 157.273L39.1994 175.739C37.1088 172.083 35.4671 168.426 34.2365 164.697C33.006 160.929 32.1486 157.048 31.6618 152.832L35.3184 151.639L129.629 120.637L137.164 118.138H137.202L140.298 117.129L140.26 117.094L143.917 115.898ZM145.648 111.409L142.76 112.353L139.103 113.548L133.296 115.444L133.331 115.479L128.455 117.096L34.1527 148.093L30.5042 149.286L27.6077 150.23L27.9566 153.259C28.4623 157.649 29.3575 161.77 30.6909 165.854C32.0134 169.862 33.7362 173.697 35.9593 177.589L37.4712 180.234L40.3651 179.282L96.4738 160.816L148.964 143.542L152.612 142.352L155.509 141.405L155.16 138.379C154.651 133.965 153.756 129.854 152.423 125.811C151.114 121.81 149.391 117.959 147.157 114.048L145.648 111.409Z" fill="#202020"/>
<path d="M120.09 127.33C120.09 132.512 115.89 136.713 110.708 136.713C105.526 136.713 101.326 132.512 101.326 127.33C101.326 122.149 105.526 117.948 110.708 117.948C115.89 117.948 120.09 122.149 120.09 127.33Z" fill="#202020"/>
<path d="M116.428 123.471C116.428 125.605 114.7 127.333 112.569 127.333C110.44 127.333 108.712 125.605 108.712 123.471C108.712 121.343 110.44 119.614 112.569 119.614C114.7 119.614 116.428 121.343 116.428 123.471Z" fill="white"/>
<path d="M59.7488 133.083C59.7488 138.265 63.9462 142.465 69.1282 142.465C74.3128 142.465 78.5103 138.265 78.5103 133.083C78.5103 127.901 74.3128 123.701 69.1282 123.701C63.9462 123.701 59.7488 127.901 59.7488 133.083Z" fill="#202020"/>
<path d="M67.2673 130.378C67.2673 132.51 68.9955 134.238 71.1267 134.238C73.2552 134.238 74.9834 132.51 74.9834 130.378C74.9834 128.247 73.2552 126.519 71.1267 126.519C68.9955 126.519 67.2673 128.247 67.2673 130.378Z" fill="white"/>
<path d="M81.615 230.528H64.7954V224.83C64.7954 222.539 66.6507 220.684 68.9415 220.684H84.8848V227.258C84.8848 229.065 83.4217 230.528 81.615 230.528Z" fill="#202020"/>
<path d="M196.653 121.042L194.462 119.017C191.117 115.925 185.9 116.128 182.806 119.474C179.715 122.819 179.917 128.036 183.263 131.128L185.454 133.153C188.799 136.247 194.016 136.042 197.11 132.699C200.202 129.353 199.999 124.134 196.653 121.042Z" fill="#202020"/>
</g>
<defs>
<clipPath id="clip0_1_3954">
<rect width="198.83" height="230.528" fill="white" transform="translate(0.4729)"/>
</clipPath>
</defs>
</svg>
