<svg width="96" height="68" viewBox="0 0 96 68" fill="none" xmlns="http://www.w3.org/2000/svg">
<path d="M29.2482 60.0004C25.1641 60.1946 21.1094 59.5051 17.4579 57.9872C6.04603 53.302 3.97998 42.6202 3.71942 33.6309C3.02377 18.1312 12.9792 8.53103 32.4131 7.79728C52.3374 6.9357 76.9591 17.2328 88.0809 27.2275C90.7037 29.2493 91.9045 32.5665 91.4522 36.4663C90.7959 42.0807 87.0866 47.4529 82.3547 49.9602C80.1227 51.1118 77.79 51.5727 75.1696 51.3896C72.8762 51.2286 70.6147 50.6005 68.4172 50.0118C66.2675 49.4329 64.0343 48.8565 61.8294 48.7778C60.3914 48.7274 59.0738 48.886 57.8202 49.2707C53.1031 50.7062 48.4437 53.0169 44.0289 55.3324C43.1907 55.7737 42.3574 56.2124 41.5278 56.65C37.7386 58.6435 33.5204 59.7964 29.2482 60.0004Z" fill="#FCF8CD"/>
<path d="M29.1438 49.122C23.7102 49.3727 18.2249 47.4173 13.917 43.6945C9.87217 40.183 7.40667 35.4536 7.3231 30.6136C6.79091 13.274 22.3533 8.225 35.4219 7.94355C53.5026 7.33393 73.9148 15.0856 83.9661 22.7181C87.389 24.9808 89.3297 28.8769 88.9376 32.3945C88.7311 34.2934 87.7516 36.8412 84.3532 38.3013C82.5023 39.0781 80.5923 39.362 78.337 39.1912H78.3358C76.148 39.0289 73.9394 38.4611 71.5907 37.8859C69.1092 37.2763 66.5294 36.6704 63.8304 36.5635C62.0175 36.4922 60.3485 36.6519 58.7396 37.0502C53.666 38.3087 49.2365 40.6058 45.0344 42.8857C41.3287 44.8965 37.8886 46.8409 34.0834 48.2653C32.5262 48.7471 30.8412 49.0433 29.1438 49.122Z" fill="#DF2536"/>
<path d="M35.4587 9.26725C53.1731 8.67607 73.1871 16.2655 83.0479 23.7382C83.0712 23.7542 83.0921 23.7702 83.113 23.7861C83.1376 23.8009 83.1585 23.8156 83.1819 23.8316C86.0775 25.7428 87.8351 29.2174 87.5106 32.2409C87.3447 33.7956 86.5495 35.8875 83.7743 37.0833C82.1372 37.7704 80.4447 38.0211 78.4377 37.8675C76.3778 37.7126 74.2282 37.162 71.9396 36.6016C69.382 35.9735 66.7272 35.3516 63.8831 35.2373C61.9253 35.1599 60.121 35.3332 58.3745 35.767C53.1313 37.0674 48.6244 39.41 44.3435 41.7329C40.7129 43.7043 37.3367 45.6143 33.6655 47.0006C32.1722 47.4554 30.6321 47.727 29.0835 47.7971C24.0112 48.0318 18.8823 46.1956 14.8608 42.7088C11.0999 39.4407 8.82247 35.0456 8.76102 30.5583C8.4218 17.5523 17.4247 9.8277 35.4587 9.26725ZM35.3849 6.6174C18.7201 7.05986 5.31596 14.2056 5.88256 30.6578C6.2439 41.9664 17.6066 50.9619 29.2064 50.4457C30.9824 50.3633 32.7818 50.0585 34.5762 49.5005C42.94 46.3701 49.9001 40.6206 59.1021 38.3321C60.6839 37.94 62.2436 37.8282 63.7774 37.8872C68.8166 38.0863 73.5411 40.1585 78.2398 40.5124C80.4509 40.6771 82.6669 40.4682 84.9517 39.5071C92.9197 36.1296 91.5554 26.1287 84.8829 21.698C74.4027 13.7251 53.473 6.00287 35.3849 6.6174Z" fill="#FF8F99"/>
<path d="M24.7796 30.6701C21.4587 30.7352 18.6699 28.4344 18.5691 25.4712C18.4708 22.5731 21.0273 20.1088 24.3875 19.9257C24.4699 19.922 24.5522 19.9195 24.6333 19.9158C26.2876 19.8826 27.8498 20.4173 29.0186 21.414C30.1997 22.4231 30.8389 23.7763 30.8339 25.2204C30.8155 28.1223 28.2615 30.4833 25.0156 30.6615C24.9369 30.664 24.8583 30.6676 24.7796 30.6701Z" fill="#FCF8CD"/>
<path d="M24.6086 17.9063C24.4956 17.91 24.3874 17.9149 24.2756 17.9198C19.6703 18.1669 16.1773 21.5665 16.3235 25.5486C16.4747 29.6193 20.286 32.7706 24.8102 32.6796C24.9184 32.6772 25.0265 32.6722 25.131 32.6686C29.5531 32.4277 33.0412 29.1915 33.0805 25.2045C33.1199 21.1363 29.3258 17.808 24.6086 17.9063ZM25.0204 30.6197C24.9393 30.6246 24.8606 30.6271 24.7795 30.6295C21.445 30.6984 18.6624 28.4099 18.5715 25.4638C18.4842 22.5915 21.0665 20.1457 24.3874 19.9674C24.4698 19.9638 24.5509 19.9601 24.6344 19.9576C28.0709 19.8888 30.8449 22.2682 30.8351 25.2131C30.8252 28.0878 28.243 30.4427 25.0204 30.6197ZM86.6774 19.6258C76.0473 11.5385 54.4527 3.31613 35.3162 3.96753C17.9742 4.50832 7.13385 11.3542 3.97517 22.2928C2.79404 25.218 2.20532 28.4996 2.20532 32.0761C2.20532 32.6169 2.21761 33.1577 2.24219 33.7108C2.54946 43.1131 4.79864 54.2853 16.9159 59.2507C20.7641 60.8484 25.029 61.5613 29.3184 61.3647C33.7922 61.1557 38.2045 59.9512 42.1744 57.8495C43.0101 57.4194 43.8336 56.9769 44.6694 56.5467C49.0325 54.2607 53.6415 51.9746 58.2505 50.5735C59.3443 50.2417 60.4984 50.0942 61.7767 50.1433C63.8304 50.2171 65.8829 50.7456 68.0461 51.3232C70.3076 51.9378 72.6428 52.5769 75.0751 52.7489C77.9646 52.9579 80.5456 52.4417 83.0148 51.1757C88.1523 48.4595 92.1848 42.6706 92.9088 36.636C93.0194 35.751 93.044 34.903 92.9948 34.0672C93.0931 33.6739 93.1669 33.2806 93.216 32.875C93.8072 28.0448 91.2372 22.6861 86.6774 19.6258ZM81.6751 48.7668C79.4751 49.8975 77.3734 50.1679 75.2607 50.0327C70.9098 49.7255 66.5466 47.5746 61.8762 47.4148C60.4124 47.3534 58.9142 47.5009 57.3901 47.9679C51.6627 49.7132 46.1811 52.6383 40.8716 55.4406C37.2458 57.3579 33.2268 58.4395 29.1832 58.6361C25.3854 58.8205 21.563 58.2183 17.9987 56.7311C10.4032 53.597 7.0724 47.6852 5.81876 40.3354C7.17073 42.6584 8.96515 44.8092 11.116 46.6528C16.2781 51.0774 22.829 53.3881 29.3307 53.0931C31.3832 52.9948 33.4235 52.6383 35.4022 52.0238C35.4268 52.0238 35.4514 52.0115 35.476 51.9992C35.5006 51.9992 35.5252 51.9869 35.5485 51.9746C39.6536 50.4383 43.4034 48.3366 47.0783 46.3455C51.2448 44.0964 55.2516 42.0315 59.8224 40.9008C61.0269 40.6058 62.2806 40.4829 63.6706 40.5321C65.9432 40.6304 68.1936 41.1589 70.5657 41.7366C72.9746 42.3265 75.4684 42.9656 78.0371 43.1623C80.9746 43.3835 83.6048 42.9902 86.1121 41.9332C87.1813 41.4785 88.1412 40.9131 88.988 40.2617C87.5992 43.7645 84.969 47.0215 81.6751 48.7668ZM90.034 34.1533C89.3445 36.3901 87.6988 38.3444 84.9567 39.512C82.6707 40.4706 80.4461 40.6796 78.2338 40.5075C73.5388 40.1634 68.8192 38.0863 63.7812 37.8896C62.2449 37.8281 60.684 37.9388 59.0973 38.3321C49.9052 40.6181 42.9364 46.3701 34.5788 49.5042C32.7831 50.0573 30.9776 50.3646 29.2066 50.4506C17.6054 50.9668 6.24893 41.9701 5.88021 30.6627C5.79418 28.1186 6.03999 25.7956 6.60536 23.6817C9.33264 12.9888 19.658 7.77762 32.3788 6.78208C33.3743 6.69605 34.3698 6.64689 35.39 6.62231C37.1229 6.56085 38.8928 6.58543 40.6749 6.67147H40.761C57.4639 7.51952 75.4192 14.5006 84.883 21.7029C86.6405 22.8582 88.0171 24.4068 88.9635 26.1152C88.977 26.1152 88.977 26.1275 88.977 26.1275C90.3892 28.6839 90.8206 31.6091 90.034 34.1533Z" fill="#202020"/>
</svg>
