<svg width="95" height="68" viewBox="0 0 95 68" fill="none" xmlns="http://www.w3.org/2000/svg">
<path d="M49.1341 64.2C32.4189 64.2 18.8218 50.6035 18.8218 33.8889C18.8218 17.1743 32.4189 3.57776 49.1341 3.57776C65.8493 3.57776 79.4464 17.1743 79.4464 33.8889C79.4464 50.6035 65.8493 64.2 49.1341 64.2Z" fill="#B53B29"/>
<path d="M78.7016 38.4522C59.3734 41.2765 39.7367 41.2765 20.4097 38.4522C17.3481 38.0085 15.2931 35.2494 15.8057 32.3981C16.3194 29.5443 19.0553 27.6455 21.9276 28.0634C40.2492 30.7414 58.8621 30.7414 77.1837 28.0634C80.0573 27.6443 82.7919 29.5431 83.3044 32.3981C83.8182 35.2494 81.7632 38.0073 78.7016 38.4522Z" fill="#B53B29"/>
<path d="M85.0066 32.0945C84.5273 29.489 82.7083 27.4857 80.3608 26.6869C77.0915 12.4672 64.3216 1.83624 49.1304 1.83624C33.7917 1.83624 20.9247 12.6761 17.8029 27.0925C15.9212 28.0634 14.509 29.8577 14.1021 32.0945C13.7838 33.9012 14.2128 35.7324 15.2943 37.2441C15.8843 38.0675 16.6463 38.7435 17.5312 39.2474C20.0889 54.3765 33.2878 65.9415 49.1304 65.9415C64.8255 65.9415 77.915 54.61 80.6558 39.6898C81.9217 39.1859 83.0278 38.3379 83.8145 37.2318C84.9083 35.7201 85.3262 33.9012 85.0066 32.0945ZM49.1304 5.31435C62.3182 5.31435 73.4166 14.2493 76.7105 26.3919C58.6187 29.0097 40.2688 28.9974 22.1771 26.355C21.9804 26.3305 21.7838 26.3059 21.5871 26.3059C24.9056 14.2001 35.9807 5.31435 49.1304 5.31435ZM49.1304 62.4634C35.5628 62.4634 24.205 53 21.2934 40.3166C30.6699 41.6317 40.1091 42.2953 49.5618 42.2953C58.7047 42.2953 67.8625 41.6808 76.944 40.4272C73.9943 53.0615 62.6623 62.4634 49.1304 62.4634ZM81.1609 34.9704C81.1228 35.0565 81.0736 35.1302 81.0122 35.2162C80.4222 36.052 79.5127 36.5927 78.4557 36.7402C78.1485 36.7894 77.8535 36.8262 77.5463 36.8631C58.6925 39.5546 39.5683 39.5055 20.7145 36.7525C20.6899 36.7402 20.6789 36.7402 20.6543 36.7402C19.596 36.5927 18.6865 36.052 18.0966 35.2285C17.557 34.4788 17.3481 33.5816 17.5066 32.6968C17.8029 31.0622 19.2286 29.87 20.8755 29.7471C20.9615 29.7348 21.0476 29.7348 21.1447 29.7348C21.318 29.7348 21.5011 29.7471 21.6732 29.7717C40.1717 32.4755 58.926 32.4755 77.4111 29.7717H77.4356C78.8982 29.5505 80.3239 30.2387 81.0859 31.4063C81.344 31.7873 81.5161 32.2297 81.6021 32.709C81.7496 33.4833 81.5899 34.2822 81.1609 34.9704Z" fill="#202020"/>
</svg>
