<svg width="134" height="75" viewBox="0 0 134 75" fill="none" xmlns="http://www.w3.org/2000/svg">
<g clip-path="url(#clip0_1_3924)">
<path d="M1.80176 27.6475C1.80176 58.6034 30.9147 72.4449 66.8293 72.4449C102.742 72.4449 131.857 58.6034 131.857 27.6475H1.80176Z" fill="#BE6A2E"/>
<path d="M66.8309 36.1745C46.3324 36.1745 26.9809 35.2006 15.0666 33.5689C3.99115 32.0723 1.76685 30.4215 1.76685 28.2449C1.76685 26.1382 3.32068 23.9297 21.9032 22.1233C33.9001 20.9571 49.8563 20.3152 66.8309 20.3152C83.8055 20.3152 99.7617 20.9571 111.757 22.1233C130.34 23.9297 131.893 26.1382 131.893 28.2449C131.893 30.2547 130.635 32.2057 115.445 33.9709C103.27 35.3722 85.55 36.1745 66.8309 36.1745Z" fill="#BE6A2E"/>
<path d="M66.8292 22.0788C101.783 22.0788 130.127 24.8274 130.127 28.2448C130.127 29.7526 124.534 31.1348 115.24 32.2168C103.641 33.5498 86.2601 34.4077 66.8292 34.4077C45.5871 34.4077 26.7917 33.3925 15.3048 31.8196C7.90104 30.8171 3.53188 29.5778 3.53188 28.2448C3.53188 24.8274 31.8759 22.0788 66.8292 22.0788ZM66.8292 18.5469C49.8006 18.5469 33.784 19.1919 21.7314 20.3644C15.7655 20.9459 11.0484 21.6291 7.71357 22.3981C5.01739 23.0193 0 24.1744 0 28.2448C0 32.506 5.21281 34.0185 14.8313 35.3197C26.8172 36.9609 46.2576 37.9412 66.8292 37.9412C85.6135 37.9412 103.405 37.1325 115.643 35.7249C129.283 34.1392 133.658 32.3217 133.658 28.2448C133.658 24.1744 128.641 23.0193 125.945 22.3981C122.61 21.6291 117.893 20.9459 111.927 20.3644C99.8744 19.1919 83.8578 18.5469 66.8292 18.5469Z" fill="#202020"/>
<path d="M131.66 40.9266C132.95 36.8259 133.624 32.3948 133.624 27.6475H130.092C130.092 32.0134 129.461 36.0887 128.252 39.8621C125.564 41.9624 103.095 44.8048 66.8309 44.8048C30.5588 44.8048 8.0886 41.9609 5.40673 39.8605C4.19925 36.0887 3.5685 32.0119 3.5685 27.6475H0.0366211C0.0366211 32.3979 0.711856 36.8307 2.00195 40.9345C2.03055 41.2014 2.10363 41.4842 2.28476 41.7781C9.26589 62.3323 32.2938 74.2117 66.8309 74.2117C101.363 74.2117 124.39 62.3355 131.374 41.7861C131.56 41.4858 131.633 41.1982 131.66 40.9266ZM66.8309 70.6798C36.2038 70.6798 15.1301 61.0565 7.14168 44.2408C10.0952 45.0288 14.7361 45.8137 22.0525 46.527C34.024 47.6932 49.9246 48.3351 66.8309 48.3351C83.7356 48.3351 99.6378 47.6932 111.609 46.527C118.924 45.8137 123.565 45.0304 126.518 44.2408C118.53 61.0565 97.4579 70.6798 66.8309 70.6798ZM14.1467 39.1503C14.1467 38.2351 14.8886 37.4948 15.8038 37.4948C16.7173 37.4948 17.4593 38.2351 17.4593 39.1503C17.4593 40.0654 16.7173 40.8074 15.8038 40.8074C14.8886 40.8074 14.1467 40.0654 14.1467 39.1503ZM39.6594 40.8074C39.6594 39.8923 40.4014 39.1503 41.3165 39.1503C42.2317 39.1503 42.9736 39.8923 42.9736 40.8074C42.9736 41.7209 42.2317 42.4629 41.3165 42.4629C40.4014 42.4629 39.6594 41.7209 39.6594 40.8074ZM65.1738 41.6749C65.1738 40.7597 65.9157 40.0194 66.8309 40.0194C67.7444 40.0194 68.4864 40.7597 68.4864 41.6749C68.4864 42.59 67.7444 43.3304 66.8309 43.3304C65.9157 43.3304 65.1738 42.59 65.1738 41.6749Z" fill="#202020"/>
<path d="M66.8308 35.3642C46.2147 35.3642 27.4257 34.2521 17.7961 32.4599L13.0964 31.5861L17.2336 29.1934C18.2362 28.615 19.45 28.3291 20.6225 28.051L21.2692 27.8969C24.5929 27.0898 28.0056 26.6815 31.4152 26.6815C32.0078 26.6815 32.5988 26.6942 33.1883 26.7196C34.3576 26.772 35.519 26.8706 36.6804 26.9722C38.3391 27.1168 39.9057 27.2519 41.4738 27.2519C42.5049 27.2519 43.428 27.1915 44.2891 27.0676C45.603 26.8849 46.9138 26.5417 48.3008 26.1778C50.398 25.6265 52.5651 25.0577 54.818 25.0577C55.6204 25.0577 56.3703 25.1277 57.1106 25.2706C58.2276 25.4899 59.2349 25.8696 60.2088 26.2398C60.7887 26.4591 61.367 26.6783 61.958 26.8531C63.2561 27.2312 64.7051 27.4155 66.386 27.4155C67.4886 27.4155 68.6977 27.3377 70.1927 27.1724C73.0033 26.8578 75.8997 26.3367 78.8008 25.6234L79.7684 25.3755C81.9513 24.8083 84.209 24.2236 86.5811 24.2236C86.9814 24.2236 87.3834 24.2411 87.7838 24.2761C89.4917 24.4318 91.0694 24.9259 92.5946 25.4009C93.7989 25.7775 94.9365 26.1318 96.0773 26.3081C96.7064 26.405 97.361 26.4527 98.0791 26.4527C99.7235 26.4527 101.389 26.2049 103.151 25.9443C103.939 25.8283 104.727 25.7123 105.513 25.617C106.659 25.4788 107.696 25.412 108.681 25.412C111.84 25.412 114.356 26.1063 116.374 27.5331C117.237 28.1749 117.86 28.8121 118.311 29.5064L119.709 31.6608L117.199 32.1962C108.042 34.1504 88.7434 35.3642 66.8308 35.3642Z" fill="#AB3727"/>
<path d="M86.5809 25.9904C86.9289 25.9904 87.2768 26.0047 87.6263 26.0364C90.4226 26.2907 93.0282 27.6252 95.8086 28.0542C96.5633 28.1702 97.3211 28.2194 98.0774 28.2194C100.621 28.2194 103.177 27.6777 105.723 27.371C106.692 27.2551 107.688 27.1788 108.679 27.1788C111.067 27.1788 113.431 27.6173 115.351 28.9757C115.907 29.3888 116.447 29.8813 116.828 30.4692C108.122 32.3281 89.0086 33.5991 66.8291 33.5991C45.6823 33.5991 27.3318 32.4393 18.1168 30.7234C19.0542 30.1832 20.4047 29.929 21.6916 29.6112C24.8756 28.8391 28.1516 28.4482 31.4214 28.4482C31.9854 28.4482 32.551 28.4594 33.115 28.4832C35.9002 28.6103 38.6932 29.0186 41.4689 29.0186C42.4952 29.0186 43.5184 28.963 44.5384 28.8168C47.9956 28.337 51.3972 26.8245 54.8179 26.8245C55.4693 26.8245 56.1207 26.8785 56.7721 27.0056C58.3926 27.3234 59.8861 28.086 61.459 28.5467C63.0589 29.0154 64.7176 29.1838 66.3874 29.1838C67.7204 29.1838 69.0629 29.0758 70.388 28.928C73.3749 28.5944 76.3142 28.0542 79.2216 27.3393C81.6477 26.726 84.0961 25.9904 86.5809 25.9904ZM86.5809 22.4585C83.9801 22.4585 81.6096 23.0734 79.317 23.6676L78.3558 23.9154C75.5484 24.6049 72.7283 25.1118 69.9971 25.4184C68.5688 25.5773 67.4217 25.652 66.3874 25.652C64.8765 25.652 63.588 25.4899 62.452 25.1563C61.9483 25.0085 61.4082 24.8051 60.8346 24.5891C59.84 24.2125 58.712 23.7867 57.4521 23.5389C56.6052 23.3752 55.7219 23.291 54.8179 23.291C52.3378 23.291 50.0578 23.89 47.8526 24.4683C46.518 24.8194 45.2565 25.1515 44.0522 25.3183C43.2578 25.4311 42.4174 25.4851 41.4689 25.4851C39.977 25.4851 38.4454 25.3533 36.8248 25.2119C35.673 25.1134 34.483 25.0101 33.2771 24.9545C32.6495 24.9275 32.0346 24.9164 31.4214 24.9164C27.8672 24.9164 24.3147 25.3406 20.8591 26.1778L20.2172 26.332C18.9796 26.6259 17.5782 26.9579 16.3533 27.6634L8.05981 32.444L17.4702 34.1965C27.1952 36.0061 46.1081 37.131 66.8291 37.131C88.8577 37.131 108.298 35.9028 117.565 33.9232L122.584 32.8524L119.793 28.5467C119.226 27.6745 118.463 26.8864 117.457 26.1397L117.426 26.1159L117.392 26.0921C115.098 24.4699 112.167 23.6469 108.679 23.6469C107.623 23.6469 106.517 23.7184 105.302 23.8646C104.499 23.9599 103.695 24.0791 102.891 24.1982C101.195 24.4492 99.5915 24.686 98.0774 24.686C97.4514 24.686 96.8858 24.6463 96.3488 24.5636C95.3383 24.4079 94.2611 24.0711 93.122 23.7152C91.584 23.2354 89.8395 22.6905 87.9473 22.5189C87.4992 22.4776 87.0401 22.4585 86.5809 22.4585Z" fill="#202020"/>
<path d="M42.3031 31.5686C40.6317 31.5686 39.2065 30.3183 38.9873 28.6611L38.3152 23.5659C38.0769 21.7372 39.367 20.0531 41.1957 19.8116L50.444 18.5914C50.5918 18.5708 50.7395 18.5612 50.8841 18.5612C52.5571 18.5612 53.9839 19.8132 54.1983 21.4719L54.872 26.5655C55.1119 28.3942 53.8202 30.0783 51.9931 30.3198L42.7432 31.5384C42.597 31.5591 42.4493 31.5686 42.3031 31.5686Z" fill="#B53B29"/>
<path d="M50.8842 20.15C51.7532 20.15 52.5079 20.7934 52.6239 21.6768L53.2959 26.7721C53.423 27.7349 52.7462 28.6182 51.7834 28.7453L42.5351 29.9639C42.4572 29.9751 42.3794 29.9798 42.3031 29.9798C41.434 29.9798 40.6794 29.3364 40.5634 28.4514L39.8913 23.3578C39.7642 22.3949 40.441 21.5116 41.4039 21.3845L50.6522 20.1659C50.73 20.1548 50.8079 20.15 50.8842 20.15ZM50.8842 16.9724C50.6713 16.9724 50.4536 16.9867 50.2375 17.0153L40.9876 18.2339C38.2898 18.5914 36.3849 21.0763 36.7408 23.7724L37.4128 28.8677C37.7353 31.3128 39.8373 33.1574 42.3031 33.1574C42.516 33.1574 42.7321 33.1431 42.9497 33.1145L52.1997 31.8959C54.8974 31.5384 56.8024 29.0536 56.4465 26.3574L55.7744 21.2621C55.4519 18.817 53.35 16.9724 50.8842 16.9724Z" fill="#202020"/>
<path d="M79.3314 31.3827C78.9327 31.3827 78.5418 31.3128 78.1669 31.173L69.4222 27.9239C68.5833 27.6125 67.9176 26.9945 67.5442 26.1826C67.1724 25.3691 67.1375 24.4604 67.4489 23.6215L69.2395 18.8043C69.7225 17.5015 70.9839 16.6229 72.3773 16.6229C72.7745 16.6229 73.1654 16.6928 73.5387 16.8326L82.2866 20.0817C83.1255 20.3931 83.7928 21.0127 84.1645 21.823C84.5363 22.6364 84.5713 23.5452 84.2599 24.3857L82.4693 29.2013C81.9831 30.5057 80.7232 31.3827 79.3314 31.3827Z" fill="#B53B29"/>
<path d="M72.3773 18.2133C72.5806 18.2133 72.7872 18.2482 72.9889 18.3245L81.7336 21.572C82.644 21.9104 83.1079 22.9225 82.7695 23.8312L80.9805 28.65C80.7168 29.357 80.0463 29.7955 79.333 29.7955C79.1296 29.7955 78.9231 29.759 78.7197 29.6843L69.975 26.4368C69.0646 26.0984 68.6023 25.0864 68.9391 24.176L70.7297 19.3588C70.9918 18.6518 71.6639 18.2133 72.3773 18.2133ZM72.3773 15.0357C70.3245 15.0357 68.4657 16.329 67.7507 18.2514L65.9617 23.0702C65.0132 25.6202 66.3176 28.4657 68.8676 29.4142L77.6139 32.6633C78.1668 32.8683 78.7451 32.9731 79.333 32.9731C81.3841 32.9731 83.243 31.6799 83.9579 29.7558L85.7485 24.9386C86.6954 22.3886 85.3926 19.5415 82.841 18.5946L74.0947 15.3455C73.5418 15.139 72.9651 15.0357 72.3773 15.0357Z" fill="#202020"/>
<path d="M102.235 30.3468C101.837 30.3468 101.444 30.2769 101.069 30.1371L96.3363 28.3799C95.499 28.0669 94.8333 27.4505 94.4583 26.637C94.0866 25.8235 94.0532 24.9147 94.3646 24.0775L95.1495 21.9644C95.6356 20.6568 96.8971 19.783 98.2873 19.783C98.6861 19.783 99.0785 19.8529 99.4535 19.9911L104.186 21.7499C105.912 22.3918 106.798 24.3205 106.158 26.0507L105.372 28.167C104.889 29.4698 103.627 30.3468 102.235 30.3468Z" fill="#B53B29"/>
<path d="M98.2872 21.3702C98.4906 21.3702 98.6971 21.4052 98.8989 21.4814L103.632 23.2386C104.542 23.577 105.005 24.5891 104.668 25.4979L103.881 27.6126C103.619 28.3212 102.947 28.7581 102.234 28.7581C102.03 28.7581 101.824 28.7231 101.622 28.6484L96.8891 26.8897C95.9803 26.5512 95.5164 25.5408 95.8548 24.6304L96.6396 22.5157C96.9018 21.8087 97.5738 21.3702 98.2872 21.3702ZM98.2872 18.1926C96.2345 18.1926 94.3756 19.4859 93.6607 21.4099L92.8758 23.523C91.9273 26.073 93.2317 28.9201 95.7817 29.8686L100.516 31.6274C101.069 31.8324 101.647 31.9356 102.234 31.9356C104.286 31.9356 106.145 30.644 106.86 28.7183L107.647 26.6053C108.594 24.0553 107.289 21.2081 104.739 20.2612L100.005 18.5024C99.4518 18.2975 98.8751 18.1926 98.2872 18.1926Z" fill="#202020"/>
<path d="M50.9219 11.7102C50.9219 10.7128 51.7305 9.90424 52.7279 9.90424H57.7043C58.7012 9.90424 59.5093 10.7124 59.5093 11.7092V16.684C59.5093 17.6815 58.7007 18.49 57.7033 18.49H52.7279C51.7304 18.49 50.9219 17.6815 50.9219 16.684V11.7102Z" fill="#009244"/>
<path d="M56.6386 11.4927C57.3456 11.4927 57.9192 12.0663 57.9192 12.7733V15.622C57.9192 16.3274 57.3456 16.9009 56.6386 16.9009H53.7899C53.0829 16.9009 52.5094 16.3274 52.5094 15.622V12.7733C52.5094 12.0663 53.0829 11.4927 53.7899 11.4927H56.6386ZM56.6386 8.31512H53.7899C51.3321 8.31512 49.3318 10.3154 49.3318 12.7733V15.622C49.3318 18.0798 51.3321 20.0785 53.7899 20.0785H56.6386C59.0965 20.0785 61.0968 18.0798 61.0968 15.622V12.7733C61.0968 10.3154 59.0965 8.31512 56.6386 8.31512Z" fill="#202020"/>
<path d="M28.0364 24.2219C28.0364 23.2245 28.845 22.4159 29.8424 22.4159H34.8188C35.8157 22.4159 36.6238 23.224 36.6238 24.2209V29.1957C36.6238 30.1931 35.8152 31.0017 34.8178 31.0017H29.8424C28.845 31.0017 28.0364 30.1931 28.0364 29.1957V24.2219Z" fill="white"/>
<path d="M33.7539 24.0044C34.4609 24.0044 35.0344 24.578 35.0344 25.2834V28.1321C35.0344 28.8391 34.4609 29.4127 33.7539 29.4127H30.9052C30.1982 29.4127 29.6246 28.8391 29.6246 28.1321V25.2834C29.6246 24.578 30.1982 24.0044 30.9052 24.0044H33.7539ZM33.7539 20.8268H30.9052C28.4473 20.8268 26.447 22.8271 26.447 25.2834V28.1321C26.447 30.5915 28.4473 32.5902 30.9052 32.5902H33.7539C36.2117 32.5902 38.212 30.5915 38.212 28.1321V25.2834C38.212 22.8271 36.2117 20.8268 33.7539 20.8268Z" fill="#202020"/>
<path d="M69.1028 3.39542C69.1028 2.39799 69.9114 1.58942 70.9088 1.58942H75.8852C76.8821 1.58942 77.6902 2.39754 77.6902 3.39442V8.36923C77.6902 9.36665 76.8816 10.1752 75.8842 10.1752H70.9088C69.9114 10.1752 69.1028 9.36665 69.1028 8.36923V3.39542Z" fill="white"/>
<path d="M74.8208 3.17697C75.5278 3.17697 76.1013 3.75052 76.1013 4.45753V7.30623C76.1013 8.01324 75.5278 8.5852 74.8208 8.5852H71.9721C71.2651 8.5852 70.6915 8.01324 70.6915 7.30623V4.45753C70.6915 3.75052 71.2651 3.17697 71.9721 3.17697H74.8208ZM74.8208 -0.000610352H71.9721C69.5142 -0.000610352 67.5139 1.99967 67.5139 4.45753V7.30623C67.5139 9.76408 69.5142 11.7628 71.9721 11.7628H74.8208C77.2786 11.7628 79.2789 9.76408 79.2789 7.30623V4.45753C79.2789 1.99967 77.2786 -0.000610352 74.8208 -0.000610352Z" fill="#202020"/>
<path d="M107.01 24.2219C107.01 23.2245 107.819 22.4159 108.816 22.4159H113.793C114.79 22.4159 115.598 23.224 115.598 24.2209V29.1957C115.598 30.1931 114.789 31.0017 113.792 31.0017H108.816C107.819 31.0017 107.01 30.1931 107.01 29.1957V24.2219Z" fill="white"/>
<path d="M112.728 24.0044C113.435 24.0044 114.008 24.578 114.008 25.2834V28.1321C114.008 28.8391 113.435 29.4127 112.728 29.4127H109.879C109.172 29.4127 108.598 28.8391 108.598 28.1321V25.2834C108.598 24.578 109.172 24.0044 109.879 24.0044H112.728ZM112.728 20.8268H109.879C107.421 20.8268 105.421 22.8271 105.421 25.2834V28.1321C105.421 30.5915 107.421 32.5902 109.879 32.5902H112.728C115.186 32.5902 117.186 30.5915 117.186 28.1321V25.2834C117.186 22.8271 115.186 20.8268 112.728 20.8268Z" fill="#202020"/>
<path d="M86.9053 15.4324C86.9053 14.435 87.7138 13.6264 88.7113 13.6264H93.6877C94.6846 13.6264 95.4927 14.4345 95.4927 15.4314V20.4062C95.4927 21.4036 94.6841 22.2122 93.6867 22.2122H88.7113C87.7138 22.2122 86.9053 21.4036 86.9053 20.4062V15.4324Z" fill="white"/>
<path d="M92.6232 15.2152C93.3303 15.2152 93.9038 15.7888 93.9038 16.4958V19.3445C93.9038 20.0499 93.3303 20.6235 92.6232 20.6235H89.7745C89.0675 20.6235 88.494 20.0499 88.494 19.3445V16.4958C88.494 15.7888 89.0675 15.2152 89.7745 15.2152H92.6232ZM92.6232 12.0377H89.7745C87.3167 12.0377 85.3164 14.0379 85.3164 16.4958V19.3445C85.3164 21.8024 87.3167 23.801 89.7745 23.801H92.6232C95.0811 23.801 97.0814 21.8024 97.0814 19.3445V16.4958C97.0814 14.0379 95.0811 12.0377 92.6232 12.0377Z" fill="#202020"/>
<path d="M77.4609 11.0678C77.4609 10.0704 78.2695 9.26184 79.2669 9.26184H84.2423C85.2398 9.26184 86.0483 10.0704 86.0483 11.0678V16.0417C86.0483 17.0391 85.2398 17.8477 84.2423 17.8477H79.2669C78.2695 17.8477 77.4609 17.0391 77.4609 16.0417V11.0678Z" fill="#009244"/>
<path d="M83.1794 10.8508C83.8864 10.8508 84.46 11.4243 84.46 12.1314V14.9801C84.46 15.6871 83.8864 16.259 83.1794 16.259H80.3307C79.6237 16.259 79.0501 15.6871 79.0501 14.9801V12.1314C79.0501 11.4243 79.6237 10.8508 80.3307 10.8508H83.1794ZM83.1794 7.67322H80.3307C77.8728 7.67322 75.8726 9.6735 75.8726 12.1314V14.9801C75.8726 17.4379 77.8728 19.4366 80.3307 19.4366H83.1794C85.6373 19.4366 87.6375 17.4379 87.6375 14.9801V12.1314C87.6375 9.6735 85.6373 7.67322 83.1794 7.67322Z" fill="#202020"/>
<path d="M61.3916 10.8864C61.3916 9.88902 62.2002 9.08044 63.1976 9.08044H68.174C69.1709 9.08044 69.979 9.88857 69.979 10.8854V15.8587C69.979 16.8561 69.1704 17.6647 68.173 17.6647H63.1976C62.2002 17.6647 61.3916 16.8561 61.3916 15.8587V10.8864Z" fill="#009244"/>
<path d="M67.1103 10.6681C67.8173 10.6681 68.3909 11.2417 68.3909 11.9487V14.7974C68.3909 15.5028 67.8173 16.0764 67.1103 16.0764H64.2616C63.5546 16.0764 62.981 15.5028 62.981 14.7974V11.9487C62.981 11.2417 63.5546 10.6681 64.2616 10.6681H67.1103ZM67.1103 7.49054H64.2616C61.8038 7.49054 59.8035 9.49082 59.8035 11.9487V14.7974C59.8035 17.2552 61.8038 19.2539 64.2616 19.2539H67.1103C69.5682 19.2539 71.5685 17.2552 71.5685 14.7974V11.9487C71.5685 9.49082 69.5682 7.49054 67.1103 7.49054Z" fill="#202020"/>
<path d="M116.201 39.1503C116.201 40.0655 116.943 40.8074 117.858 40.8074C118.771 40.8074 119.513 40.0655 119.513 39.1503C119.513 38.2352 118.771 37.4932 117.858 37.4932C116.943 37.4932 116.201 38.2352 116.201 39.1503Z" fill="#2B2B2B"/>
<path d="M90.6865 40.8058C90.6865 41.721 91.4285 42.463 92.3436 42.463C93.2572 42.463 93.9992 41.721 93.9992 40.8058C93.9992 39.8907 93.2572 39.1487 92.3436 39.1487C91.4285 39.1487 90.6865 39.8907 90.6865 40.8058Z" fill="#2B2B2B"/>
</g>
<defs>
<clipPath id="clip0_1_3924">
<rect width="133.66" height="74.2107" fill="white"/>
</clipPath>
</defs>
</svg>
