<svg width="133" height="154" viewBox="0 0 133 154" fill="none" xmlns="http://www.w3.org/2000/svg">
<g clip-path="url(#clip0_1_3998)">
<path d="M132.536 141.705C132.536 148.219 102.869 153.501 66.2759 153.501C29.6823 153.501 0.0158691 148.219 0.0158691 141.705C0.0158691 135.191 29.6823 129.908 66.2759 129.908C102.869 129.908 132.536 135.191 132.536 141.705Z" fill="#909090"/>
<path d="M46.9394 92.6179H85.6904V131.369H46.9394V92.6179ZM21.5259 58.4551H112.812V42.2917H21.5259V58.4551ZM21.5259 82.6273H112.812V66.464H21.5259V82.6273Z" fill="white"/>
<path d="M116.5 56.6909V44.0579C116.5 41.0524 114.053 38.6056 111.048 38.6056H107.571V32.1395C107.571 30.9899 106.641 30.0619 105.494 30.0619H96.0959C90.923 23.4022 83.4171 18.5466 74.8136 16.6167C75.8793 15.0022 76.5099 13.0723 76.5099 10.9988C76.5099 5.36286 71.9237 0.778687 66.2878 0.778687C60.6499 0.778687 56.0657 5.36286 56.0657 10.9988C56.0657 13.1083 56.7084 15.0661 57.806 16.6986C49.3501 18.6883 42.0358 23.504 36.8649 30.0619H27.5229C26.3754 30.0619 25.4434 30.9899 25.4434 32.1395V38.6056H21.5258C18.5202 38.6056 16.0754 41.0524 16.0754 44.0579V56.6909C16.0754 58.9021 17.4066 60.808 19.3065 61.6602C17.3567 63.0832 16.0754 65.3643 16.0754 67.9547V137.587C16.0754 141.89 19.5759 145.391 23.8787 145.391H108.693C112.998 145.391 116.5 141.89 116.5 137.587V67.9547C116.5 65.3643 115.217 63.0792 113.269 61.6602C115.169 60.806 116.5 58.9021 116.5 56.6909ZM66.2878 6.30684C68.8783 6.30684 70.9778 8.40834 70.9778 10.9988C70.9778 13.5912 68.8783 15.6907 66.2878 15.6907C63.6954 15.6907 61.5959 13.5912 61.5959 10.9988C61.5959 8.40834 63.6954 6.30684 66.2878 6.30684ZM23.4496 45.9798H109.126V54.769H23.4496V45.9798ZM109.126 80.8251H23.4496V67.9547C23.4496 67.7172 23.6412 67.5217 23.8787 67.5217H108.693C108.93 67.5217 109.126 67.7172 109.126 67.9547V80.8251ZM51.2381 124.785V99.1778C51.2381 97.0324 52.9784 95.2921 55.1238 95.2921H77.5317C79.6771 95.2921 81.4154 97.0324 81.4154 99.1778V124.785C81.4154 126.93 79.6771 128.669 77.5317 128.669H55.1238C52.9784 128.669 51.2381 126.93 51.2381 124.785Z" fill="#202020"/>
<path d="M74.64 124.364H58.0137C56.4231 124.364 55.1318 123.073 55.1318 121.482V102.483C55.1318 100.89 56.4231 99.601 58.0137 99.601H74.64C76.2326 99.601 77.5219 100.89 77.5219 102.483V121.482C77.5219 123.073 76.2326 124.364 74.64 124.364Z" fill="#202020"/>
<path d="M32.0952 98.1101H29.5067C28.8461 98.1101 28.3113 98.645 28.3113 99.3055V124.683C28.3113 125.344 28.8461 125.879 29.5067 125.879H32.0952C32.7558 125.879 33.2906 125.344 33.2906 124.683V99.3055C33.2906 98.645 32.7558 98.1101 32.0952 98.1101Z" fill="white"/>
</g>
<defs>
<clipPath id="clip0_1_3998">
<rect width="132.52" height="152.723" fill="white" transform="translate(0.0158691 0.777344)"/>
</clipPath>
</defs>
</svg>
