<svg width="146" height="122" viewBox="0 0 146 122" fill="none" xmlns="http://www.w3.org/2000/svg">
<g clip-path="url(#clip0_1_4031)">
<path d="M134.444 110.87C134.444 116.892 107.018 121.776 73.1878 121.776C39.3574 121.776 11.9312 116.892 11.9312 110.87C11.9312 104.848 39.3574 99.9644 73.1878 99.9644C107.018 99.9644 134.444 104.848 134.444 110.87Z" fill="#909090"/>
<rect x="19.8315" y="46.3582" width="106.711" height="64.5113" fill="#918E8F"/>
<rect x="19.8315" y="26.0481" width="106.711" height="20.3119" fill="#B8B6B6"/>
<path d="M85.0163 3.40869H61.3575C60.8871 3.40869 60.5051 3.79061 60.5051 4.26109V22.0951C60.5051 22.5656 60.8871 22.9475 61.3575 22.9475H85.0163C85.4868 22.9475 85.8687 22.5656 85.8687 22.0951V4.26109C85.8687 3.79061 85.4868 3.40869 85.0163 3.40869Z" fill="#918E8F"/>
<path d="M142.542 43.7188H129.952V26.0859C129.952 22.4752 127.015 19.5379 123.404 19.5379H89.2783V4.26298C89.2783 1.91427 87.365 0.000976562 85.0163 0.000976562H61.3575C59.0088 0.000976562 57.0955 1.91427 57.0955 4.26298V19.5379H22.9736C19.3629 19.5379 16.4219 22.4752 16.4219 26.0859V43.7188H3.83148C1.94956 43.7188 0.421875 45.2465 0.421875 47.1266C0.421875 49.0085 1.94956 50.5362 3.83148 50.5362H16.4219V107.732C16.4219 111.343 19.3629 114.28 22.9736 114.28H123.404C127.015 114.28 129.952 111.343 129.952 107.732V50.5362H142.542C144.424 50.5362 145.952 49.0085 145.952 47.1266C145.952 45.2465 144.424 43.7188 142.542 43.7188ZM63.9129 6.81834H82.4609V19.5398H63.9129V6.81834ZM23.2393 26.3572H61.3575H85.0163H123.134V43.7188H23.2393V26.3572ZM123.134 107.463H23.2393V50.5362H123.134V107.463Z" fill="#202020"/>
<path d="M36.9957 97.8574H31.8629C31.3592 97.8574 30.9514 97.4496 30.9514 96.946V59.9809C30.9514 59.479 31.3592 59.0713 31.8629 59.0713H36.9957C37.4994 59.0713 37.9072 59.479 37.9072 59.9809V96.946C37.9072 97.4496 37.4994 97.8574 36.9957 97.8574Z" fill="white"/>
</g>
<defs>
<clipPath id="clip0_1_4031">
<rect width="145.53" height="121.775" fill="white" transform="translate(0.421875)"/>
</clipPath>
</defs>
</svg>
