<svg width="133" height="135" viewBox="0 0 133 135" fill="none" xmlns="http://www.w3.org/2000/svg">
<g clip-path="url(#clip0_2_2047)">
<path d="M132.793 122.766C132.793 129.246 103.283 134.501 66.8829 134.501C30.4826 134.501 0.9729 129.246 0.9729 122.766C0.9729 116.286 30.4826 111.031 66.8829 111.031C103.283 111.031 132.793 116.286 132.793 122.766Z" fill="#909090"/>
<path d="M111.107 109.846H22.6611C16.4316 109.846 11.3833 104.797 11.3833 98.5678V59.4803H122.385V98.5678C122.385 104.797 117.334 109.846 111.107 109.846Z" fill="#918E8F"/>
<path d="M73.2057 3.84387H58.2355C57.6538 3.84387 57.1833 4.31437 57.1833 4.89406V15.9459C57.1833 16.5256 57.6538 16.9961 58.2355 16.9961H73.2057C73.7854 16.9961 74.2559 16.5256 74.2559 15.9459V4.89406C74.2559 4.31437 73.7854 3.84387 73.2057 3.84387Z" fill="#918E8F"/>
<path d="M9.39018 57.7968H124.376C126.516 57.7968 128.249 56.0637 128.249 53.9236V41.5198C128.249 39.3817 126.516 37.6486 124.376 37.6486H9.39018C7.25214 37.6486 5.51709 39.3817 5.51709 41.5198V53.9236C5.51709 56.0637 7.25214 57.7968 9.39018 57.7968Z" fill="#F9B52B"/>
<path d="M10.22 37.6486C47.9186 9.73813 85.6946 10.4905 123.544 37.6486H10.22Z" fill="white"/>
<path d="M9.39018 57.7968H124.376C126.516 57.7968 128.249 56.0637 128.249 53.9236V41.5198C128.249 39.3817 126.516 37.6486 124.376 37.6486H9.39018C7.25214 37.6486 5.51709 39.3817 5.51709 41.5198V53.9236C5.51709 56.0637 7.25214 57.7968 9.39018 57.7968Z" fill="#B8B6B6"/>
<path d="M75.6236 91.0754C75.6236 95.9035 71.7108 99.8164 66.8828 99.8164C62.0568 99.8164 58.144 95.9035 58.144 91.0754C58.144 86.2473 62.0568 82.3344 66.8828 82.3344C71.7108 82.3344 75.6236 86.2473 75.6236 91.0754Z" fill="white"/>
<path d="M35.4376 122.766H30.4965C28.9877 122.766 27.7668 121.545 27.7668 120.036V109.846H38.1672V120.036C38.1672 121.545 36.9443 122.766 35.4376 122.766Z" fill="#918E8F"/>
<path d="M103.269 122.766H98.3283C96.8195 122.766 95.5986 121.545 95.5986 120.036V109.846H105.999V120.036C105.999 121.545 104.776 122.766 103.269 122.766Z" fill="#918E8F"/>
<path d="M46.8762 91.0754C46.8762 93.1023 45.2325 94.7461 43.2056 94.7461C41.1787 94.7461 39.535 93.1023 39.535 91.0754C39.535 89.0485 41.1787 87.4047 43.2056 87.4047C45.2325 87.4047 46.8762 89.0485 46.8762 91.0754ZM90.5581 87.4047C88.5313 87.4047 86.8875 89.0485 86.8875 91.0754C86.8875 93.1023 88.5313 94.7461 90.5581 94.7461C92.585 94.7461 94.2287 93.1023 94.2287 91.0754C94.2287 89.0485 92.585 87.4047 90.5581 87.4047ZM66.8809 67.8282C64.854 67.8282 63.2123 69.472 63.2123 71.4989C63.2123 73.5259 64.854 75.1697 66.8809 75.1697C68.9077 75.1697 70.5515 73.5259 70.5515 71.4989C70.5515 69.472 68.9077 67.8282 66.8809 67.8282ZM131.713 41.5218V53.9256C131.713 57.4871 129.162 60.459 125.791 61.1221C125.805 61.3067 125.847 61.4814 125.847 61.668V100.37C125.847 107.507 120.042 113.312 112.905 113.312H109.465V120.04C109.465 123.455 106.686 126.232 103.269 126.232H98.3261C94.9096 126.232 92.1344 123.455 92.1344 120.04V113.312H41.6314V120.04C41.6314 123.455 38.8521 126.232 35.4356 126.232H30.4965C27.08 126.232 24.3007 123.455 24.3007 120.04V113.312H20.8564C13.7197 113.312 7.91504 107.507 7.91504 100.37V61.668C7.91504 61.4814 7.95673 61.3067 7.97062 61.1221C4.59979 60.459 2.04883 57.4871 2.04883 53.9256V41.5218C2.04883 37.5871 5.16556 34.3928 9.05453 34.2161C23.7965 23.4779 38.7032 16.9326 53.7171 14.5722V4.89609C53.7171 2.4066 55.746 0.377686 58.2354 0.377686H73.2057C75.6931 0.377686 77.722 2.4066 77.722 4.89609V14.3419C93.3155 16.4978 108.989 23.1266 124.67 34.2121C128.578 34.371 131.713 37.5751 131.713 41.5218ZM60.6494 13.5299H70.7877V7.31015H60.6494V13.5299ZM21.5294 34.1824H111.96C97.8676 25.7451 83.9812 21.1671 70.1922 20.4644H62.6981C48.9368 21.1632 35.253 25.7411 21.5294 34.1824ZM34.6991 113.312H31.233V119.3H34.6991V113.312ZM102.533 113.312H99.0666V119.3H102.533V113.312ZM118.914 61.668C118.914 61.4477 118.732 61.265 118.511 61.265H15.2543C15.0299 61.265 14.8473 61.4477 14.8473 61.668V100.37C14.8473 103.684 17.5412 106.38 20.8564 106.38H24.3007H41.6314H92.1344H109.465H112.905C116.221 106.38 118.914 103.684 118.914 100.37V61.668ZM124.781 41.5218C124.781 41.2975 124.598 41.1148 124.374 41.1148H9.38804C9.16372 41.1148 8.98108 41.2975 8.98108 41.5218V53.9256C8.98108 54.1499 9.16372 54.3326 9.38804 54.3326H15.2543H118.511H124.374C124.598 54.3326 124.781 54.1499 124.781 53.9256V41.5218Z" fill="#202020"/>
<path d="M66.883 102.592C60.5304 102.592 55.365 97.4263 55.365 91.0755C55.365 84.7247 60.5304 79.5591 66.883 79.5591C73.2316 79.5591 78.3971 84.7247 78.3971 91.0755C78.3971 97.4263 73.2316 102.592 66.883 102.592ZM66.883 85.1118C63.5956 85.1118 60.9175 87.7879 60.9175 91.0755C60.9175 94.363 63.5956 97.0391 66.883 97.0391C70.1685 97.0391 72.8445 94.363 72.8445 91.0755C72.8445 87.7879 70.1685 85.1118 66.883 85.1118Z" fill="#202020"/>
<path d="M24.6919 68.5231H22.1171C21.46 68.5231 20.928 69.0551 20.928 69.7122V94.9566C20.928 95.6137 21.46 96.1457 22.1171 96.1457H24.6919C25.349 96.1457 25.881 95.6137 25.881 94.9566V69.7122C25.881 69.0551 25.349 68.5231 24.6919 68.5231Z" fill="white"/>
</g>
<defs>
<clipPath id="clip0_2_2047">
<rect width="131.82" height="134.123" fill="white" transform="translate(0.9729 0.377075)"/>
</clipPath>
</defs>
</svg>
