<svg width="96" height="68" viewBox="0 0 96 68" fill="none" xmlns="http://www.w3.org/2000/svg">
<path d="M82.6697 9.38889L75.9295 22.7955V58.4862C75.9295 60.814 74.0429 62.7006 71.7151 62.7006H31.8935C29.5669 62.7006 27.6791 60.814 27.6791 58.4862V9.6937C27.6791 7.36586 29.5669 5.47925 31.8935 5.47925H80.2582C82.2678 5.47925 83.5718 7.59446 82.6697 9.38889ZM9.28247 16.6465V33.594C9.28247 35.1561 10.5484 36.4221 12.1105 36.4221C13.6714 36.4221 14.9374 35.1561 14.9374 33.594V17.422C14.9374 17.3606 14.9878 17.3102 15.0492 17.3102H24.4565V11.6553H14.2737C11.5169 11.6553 9.28247 13.8897 9.28247 16.6465Z" fill="white"/>
<path d="M70.2083 64.5307H32.5843C28.7742 64.5307 25.6843 61.4408 25.6843 57.6307V31.4124H77.1082V57.6307C77.1082 61.4408 74.0196 64.5307 70.2083 64.5307Z" fill="#63D7F2"/>
<path d="M77.1083 31.4825C77.1083 32.3649 65.7149 33.0803 51.6594 33.0803C37.6038 33.0803 26.2104 32.3649 26.2104 31.4825C26.2104 30.6 37.6038 29.8847 51.6594 29.8847C65.7149 29.8847 77.1083 30.6 77.1083 31.4825Z" fill="#19C9F2"/>
<path d="M41.5172 25.953H32.0571C31.3664 25.953 30.8071 25.3937 30.8071 24.703C30.8071 24.0135 31.3664 23.4543 32.0571 23.4543H41.5172C42.2079 23.4543 42.7671 24.0135 42.7671 24.703C42.7671 25.3937 42.2079 25.953 41.5172 25.953Z" fill="#2B2B2B"/>
<path d="M85.2777 5.08351C84.1962 3.32841 82.3194 2.28125 80.2595 2.28125H31.8935C28.2284 2.28125 25.1853 4.95814 24.5941 8.45851H24.4565H13.9074C9.59466 8.45851 6.08569 11.9662 6.08569 16.2802V33.594C6.08569 36.9162 8.7884 39.6189 12.1105 39.6189C15.4315 39.6189 18.1342 36.9162 18.1342 33.594V20.507H24.4565H24.4823V58.4874C24.4823 62.574 27.8069 65.8974 31.8935 65.8974H71.7151C75.8017 65.8974 79.1263 62.574 79.1263 58.4874V23.5538L85.526 10.8257C86.4515 8.98332 86.3593 6.83738 85.2777 5.08351ZM24.4565 17.3102H15.0492C14.9878 17.3102 14.9374 17.3594 14.9374 17.4208V33.594C14.9374 35.1562 13.6715 36.4209 12.1105 36.4209C10.5484 36.4209 9.28248 35.1562 9.28248 33.594V16.2802C9.28248 13.7263 11.3534 11.6553 13.9074 11.6553H24.4565V17.3102ZM82.6697 9.38891L75.9295 22.7955V30.8495H67.24C66.5493 30.8495 65.9913 31.4075 65.9913 32.0983C65.9913 32.789 66.5493 33.347 67.24 33.347H75.9295V58.4874C75.9295 60.814 74.0429 62.7006 71.7151 62.7006H31.8935C29.5669 62.7006 27.6803 60.814 27.6803 58.4874V9.69248C27.6803 7.36587 29.5669 5.47804 31.8935 5.47804H80.2595C82.2678 5.47804 83.5718 7.59448 82.6697 9.38891ZM42.7658 17.3102C42.7658 17.9997 42.2066 18.5602 41.5158 18.5602H32.0557C31.3662 18.5602 30.807 17.9997 30.807 17.3102C30.807 16.6195 31.3662 16.0602 32.0557 16.0602H41.5158C42.2066 16.0602 42.7658 16.6195 42.7658 17.3102ZM42.7658 32.097C42.7658 32.7878 42.2066 33.347 41.5158 33.347H32.0557C31.3662 33.347 30.807 32.7878 30.807 32.097C30.807 31.4075 31.3662 30.8483 32.0557 30.8483H41.5158C42.2066 30.8483 42.7658 31.4075 42.7658 32.097ZM42.7658 39.4923C42.7658 40.1818 42.2066 40.741 41.5158 40.741H32.0557C31.3662 40.741 30.807 40.1818 30.807 39.4923C30.807 38.8016 31.3662 38.2423 32.0557 38.2423H41.5158C42.2066 38.2423 42.7658 38.8016 42.7658 39.4923ZM42.7658 46.8851C42.7658 47.5758 42.2066 48.135 41.5158 48.135H32.0557C31.3662 48.135 30.807 47.5758 30.807 46.8851C30.807 46.1956 31.3662 45.6364 32.0557 45.6364H41.5158C42.2066 45.6364 42.7658 46.1956 42.7658 46.8851ZM42.7658 54.2791C42.7658 54.9698 42.2066 55.5291 41.5158 55.5291H32.0557C31.3662 55.5291 30.807 54.9698 30.807 54.2791C30.807 53.5884 31.3662 53.0292 32.0557 53.0292H41.5158C42.2066 53.0292 42.7658 53.5884 42.7658 54.2791Z" fill="#202020"/>
</svg>
